<svg width="30" height="30" viewBox="0 0 30 30" fill="none" xmlns="http://www.w3.org/2000/svg">
<g clip-path="url(#clip0_31_1009)">
<path d="M15.1184 7.34917V11.975" stroke="#655C5C" stroke-width="3" stroke-miterlimit="10" stroke-linecap="round"/>
<path d="M15.1412 1.2999C9.44114 1.2999 4.82529 5.33601 4.82529 10.3202V13.1644C4.82529 14.0854 4.39159 15.4669 3.84946 16.2524L1.8823 19.1238C0.674127 20.898 1.51055 22.8755 3.74103 23.5256C11.145 25.6791 19.153 25.6791 26.5569 23.5256C28.648 22.9161 29.5464 20.7761 28.4156 19.1238L26.4485 16.2524C25.9064 15.4669 25.4726 14.0719 25.4726 13.1644V10.3202C25.4572 5.3631 20.8103 1.2999 15.1412 1.2999Z" stroke="#655C5C" stroke-width="3" stroke-miterlimit="10" stroke-linecap="round"/>
<path d="M20.3361 24.0733C20.3361 26.6154 17.9858 28.6991 15.1184 28.6991C13.6925 28.6991 12.3763 28.1713 11.4363 27.3378C10.4961 26.5043 9.90073 25.3374 9.90073 24.0733" stroke="#655C5C" stroke-width="3" stroke-miterlimit="10"/>
</g>
<defs>
<clipPath id="clip0_31_1009">
<rect width="30" height="30" fill="white"/>
</clipPath>
</defs>
</svg>
