<svg width="95" height="100" viewBox="0 0 95 100" fill="none" xmlns="http://www.w3.org/2000/svg">
<circle cx="47.5" cy="47.5" r="47.5" fill="#D9D9D9"/>
<path fill-rule="evenodd" clip-rule="evenodd" d="M0 47.5C0 21.2665 21.2665 0 47.5 0C73.7333 0 95 21.2665 95 47.5C95 73.7333 73.7333 95 47.5 95C21.2665 95 0 73.7333 0 47.5ZM47.4995 19C37.0062 19 28.4996 27.5066 28.4996 38C28.4996 48.4932 37.0062 57 47.4995 57C57.9927 57 66.4995 48.4932 66.4995 38C66.4995 27.5066 57.9927 19 47.4995 19ZM71.7796 66.4876C75.3792 68.8056 75.2034 73.8582 71.9255 76.6118C65.3206 82.1588 56.801 85.5 47.5005 85.5C38.2617 85.5 29.7927 82.203 23.2064 76.7211C19.8992 73.9684 19.724 68.8902 23.3392 66.557C24.4646 65.8307 25.6902 65.1942 27.0203 64.6461C32.372 62.4397 39.2075 61.75 47.5 61.75C55.8344 61.75 62.7085 62.3955 68.0742 64.5781C69.4146 65.1235 70.6487 65.7595 71.7796 66.4876Z" fill="#C07F1F"/>
<path fill-rule="evenodd" clip-rule="evenodd" d="M73.1851 99.75H77.8147C81.0659 99.75 82.6914 99.75 83.8591 98.9533C84.3645 98.6084 84.7986 98.1652 85.1364 97.6491C85.9166 96.4568 85.9166 94.7969 85.9166 91.4772C85.9166 88.1577 85.9166 86.4978 85.1364 85.3055C84.7986 84.7893 84.3645 84.3461 83.8591 84.0012C83.1087 83.4893 82.1694 83.3063 80.7312 83.2409C80.0448 83.2409 79.454 82.7099 79.3194 82.0227C79.1174 80.992 78.2311 80.25 77.2017 80.25H73.7981C72.7687 80.25 71.8824 80.992 71.6805 82.0227C71.5459 82.7099 70.955 83.2409 70.2687 83.2409C68.8305 83.3063 67.8911 83.4893 67.1408 84.0012C66.6353 84.3461 66.2013 84.7893 65.8635 85.3055C65.0833 86.4978 65.0833 88.1577 65.0833 91.4772C65.0833 94.7969 65.0833 96.4568 65.8635 97.6491C66.2013 98.1652 66.6353 98.6084 67.1408 98.9533C68.3085 99.75 69.934 99.75 73.1851 99.75ZM75.4999 87.0455C73.1028 87.0455 71.1596 89.0297 71.1596 91.4772C71.1596 93.9249 73.1028 95.909 75.4999 95.909C77.897 95.909 79.8402 93.9249 79.8402 91.4772C79.8402 89.0297 77.897 87.0455 75.4999 87.0455ZM75.4999 88.8182C74.0617 88.8182 72.8958 90.0087 72.8958 91.4772C72.8958 92.9458 74.0617 94.1364 75.4999 94.1364C76.9381 94.1364 78.1041 92.9458 78.1041 91.4772C78.1041 90.0087 76.9381 88.8182 75.4999 88.8182ZM80.4189 87.9318C80.4189 87.4423 80.8075 87.0455 81.287 87.0455H82.4444C82.9238 87.0455 83.3124 87.4423 83.3124 87.9318C83.3124 88.4214 82.9238 88.8182 82.4444 88.8182H81.287C80.8075 88.8182 80.4189 88.4214 80.4189 87.9318Z" fill="#1C274C"/>
</svg>
