<svg width="30" height="30" viewBox="0 0 30 30" fill="none" xmlns="http://www.w3.org/2000/svg">
<path fill-rule="evenodd" clip-rule="evenodd" d="M1.25 15C1.25 7.40609 7.40609 1.25 15 1.25C22.5939 1.25 28.75 7.40609 28.75 15C28.75 22.5939 22.5939 28.75 15 28.75C7.40609 28.75 1.25 22.5939 1.25 15ZM15.625 6.875C16.3154 6.875 16.875 7.43465 16.875 8.125V13.125H21.875C22.5654 13.125 23.125 13.6846 23.125 14.375V15.625C23.125 16.3154 22.5654 16.875 21.875 16.875H16.875V21.875C16.875 22.5654 16.3154 23.125 15.625 23.125H14.375C13.6846 23.125 13.125 22.5654 13.125 21.875V16.875H8.125C7.43465 16.875 6.875 16.3154 6.875 15.625V14.375C6.875 13.6846 7.43465 13.125 8.125 13.125H13.125V8.125C13.125 7.43465 13.6846 6.875 14.375 6.875H15.625Z" fill="#655C5C"/>
</svg>
