<svg width="30" height="30" viewBox="0 0 30 30" fill="none" xmlns="http://www.w3.org/2000/svg">
<g clip-path="url(#clip0_31_1013)">
<path fill-rule="evenodd" clip-rule="evenodd" d="M0.294128 15C0.294128 6.87813 6.87817 0.294086 15 0.294086C23.1218 0.294086 29.7059 6.87813 29.7059 15C29.7059 23.1217 23.1218 29.7058 15 29.7058C6.87817 29.7058 0.294128 23.1217 0.294128 15ZM14.9999 6.17644C11.7511 6.17644 9.11752 8.81006 9.11752 12.0588C9.11752 15.3075 11.7511 17.9411 14.9999 17.9411C18.2485 17.9411 20.8822 15.3075 20.8822 12.0588C20.8822 8.81006 18.2485 6.17644 14.9999 6.17644ZM22.5169 20.8785C23.6313 21.5961 23.5769 23.1604 22.5621 24.0129C20.5172 25.7303 17.8796 26.7647 15.0002 26.7647C12.1399 26.7647 9.51788 25.7439 7.47877 24.0467C6.45488 23.1945 6.40063 21.6223 7.51988 20.9C7.8683 20.6751 8.24774 20.4781 8.65955 20.3083C10.3164 19.6253 12.4327 19.4117 15 19.4117C17.5803 19.4117 19.7085 19.6116 21.3697 20.2873C21.7847 20.4561 22.1668 20.6531 22.5169 20.8785Z" fill="#655C5C"/>
</g>
<defs>
<clipPath id="clip0_31_1013">
<rect width="30" height="30" fill="white"/>
</clipPath>
</defs>
</svg>
